#
# object Box001
#

v  -2 -2 2
v  -2 -2 -2
v  2 -2 -2
v  2 -2 2
v  -2 2 2
v  2 2 2
v  2 2 -2
v  -2 2 -2
# 8 vertices

vn 0.0000 -1.0000 -0.0000
vn 0.0000 1.0000 -0.0000
vn 0.0000 0.0000 1.0000
vn 1.0000 0.0000 -0.0000
vn 0.0000 0.0000 -1.0000
vn -1.0000 0.0000 -0.0000
# 6 vertex normals

g Box001
f 1/0/1 2/0/1 3/0/1
f 3/0/1 4/0/1 1/0/1
f 5/0/2 6/0/2 7/0/2 
f 7/0/2 8/0/2 5/0/2
f 1/0/3 4/0/3 6/0/3
f 6/0/3 5/0/3 1/0/3
f 4/0/4 3/0/4 7/0/4
f 7/0/4 6/0/4 4/0/4
f 3/0/5 2/0/5 8/0/5
f 8/0/5 7/0/5 3/0/5
f 2/0/6 1/0/6 5/0/6
f 5/0/6 8/0/6 2/0/6
# 12 polygons

